<svg width="24" height="24" viewBox="0 0 1000 1000" xmlns="http://www.w3.org/2000/svg"><path d="M 229 615C 229 615 382 766 382 766C 382 766 356 792 356 792C 351 798 344 800 338 802C 338 802 210 828 210 828C 186 832 163 810 169 785C 169 785 195 659 195 659C 195 652 199 646 203 641C 203 641 229 615 229 615M 713 137C 713 137 865 288 865 288C 865 288 432 716 432 716C 432 716 279 565 279 565C 279 565 713 137 713 137M 839 25C 848 25 858 29 865 36C 865 36 967 137 967 137C 980 150 980 173 967 187C 967 187 915 237 915 237C 915 237 763 86 763 86C 763 86 815 36 815 36C 821 29 830 25 839 25C 839 25 839 25 839 25M 150 13C 150 13 650 13 650 13C 664 12 676 19 683 31C 690 43 690 57 683 69C 676 81 664 88 650 88C 650 88 150 88 150 88C 138 88 121 95 108 108C 95 121 88 138 88 150C 88 150 88 850 88 850C 88 862 95 879 108 892C 121 905 138 912 150 912C 150 912 850 912 850 912C 862 912 879 905 892 892C 905 879 912 862 912 850C 912 850 912 350 912 350C 912 336 919 324 931 317C 943 310 957 310 969 317C 981 324 988 336 987 350C 987 350 987 850 987 850C 987 887 970 920 945 945C 921 970 888 987 850 987C 850 987 150 987 150 987C 113 987 79 970 55 945C 30 921 13 887 13 850C 13 850 13 150 13 150C 13 113 30 79 55 55C 79 30 113 13 150 13C 150 13 150 13 150 13"/></svg>