<svg  width="24" height="24" viewBox="0 0 1000 1000" xmlns="http://www.w3.org/2000/svg"><path d="M 200 450C 200 435 210 425 225 425C 225 425 425 425 425 425C 425 425 425 225 425 225C 425 210 435 200 450 200C 450 200 550 200 550 200C 565 200 575 210 575 225C 575 225 575 425 575 425C 575 425 775 425 775 425C 790 425 800 435 800 450C 800 450 800 550 800 550C 800 565 790 575 775 575C 775 575 575 575 575 575C 575 575 575 775 575 775C 575 790 565 800 550 800C 550 800 450 800 450 800C 435 800 425 790 425 775C 425 775 425 575 425 575C 425 575 225 575 225 575C 210 575 200 565 200 550C 200 550 200 450 200 450"/></svg>