<svg  width="24" height="24" viewBox="0 0 1000 1000" xmlns="http://www.w3.org/2000/svg"><path d="M 500 325C 546 325 591 343 624 376C 657 409 675 454 675 500C 675 546 657 591 624 624C 591 657 546 675 500 675C 454 675 409 657 376 624C 343 591 325 546 325 500C 325 468 334 437 350 410C 356 428 373 439 391 439C 403 439 414 435 422 427C 430 418 434 407 434 396C 434 377 422 360 403 354C 432 335 466 325 500 325C 500 325 500 325 500 325M 500 275C 376 275 275 376 275 500C 275 624 376 725 500 725C 560 725 617 701 659 659C 701 617 725 560 725 500C 725 376 624 275 500 275C 500 275 500 275 500 275M 505 237C 694 237 884 316 992 477C 1000 489 1000 506 992 518C 884 681 692 761 501 762C 311 763 119 685 11 522C 2 509 2 493 11 480C 119 318 311 238 501 237C 503 237 504 237 505 237C 505 237 505 237 505 237"/></svg>